# xmcd
#
# Track frame offsets:
#	150
#	28500
#	48657
#	73095
#	94642
#	108760
#	140160
#	166055
#	185465
#	202635
#
# Disc length: 3022 seconds
#
# Revision: 1
# Processed by: cddbd v1.5.2PL0 Copyright (c) Steve Scherf et al.
# Submitted via: EasyCDDAExtractor 10.0.1.1
#
DISCID=800bcc0a
DTITLE=Various Artist - Nu Groove - Here Comes That Sound Again CD4
DYEAR=1900
DGENRE=Blues
TTITLE0=Lost Entity - Annihilate
TTITLE1=Looney Tunes - Is Rhythm Rhythm?	
TTITLE2=Critical Rhythm - An Illusion	
TTITLE3=Project 86 - Industrial Bass	
TTITLE4=Assylum - Instrumental Ward	
TTITLE5=Critical Rhythm - Kemo Therapy	
TTITLE6=33 1/3 Queen - Searchin'	
TTITLE7=Sound Vandals, The - Ecstasy, What Is It?	
TTITLE8=New Groove - Set The Alarm	
TTITLE9=Rob Steal - Give In To The Rhythm
EXTD=
EXTT0=
EXTT1=
EXTT2=
EXTT3=
EXTT4=
EXTT5=
EXTT6=
EXTT7=
EXTT8=
EXTT9=
PLAYORDER=
